<?xml version="1.0" encoding="UTF-8" standalone="no"?>
<!DOCTYPE svg PUBLIC "-//W3C//DTD SVG 1.1//EN" "http://www.w3.org/Graphics/SVG/1.1/DTD/svg11.dtd">
<!--Generator: Xara Designer (www.xara.com), SVG filter version: 6.7.0.0-->

<svg
   fill="none"
   fill-rule="evenodd"
   stroke="#000000"
   stroke-width="0.501"
   stroke-linejoin="bevel"
   stroke-miterlimit="10"
   font-family="'Times New Roman'"
   font-size="16px"
   style="font-variant-ligatures:none"
   version="1.1"
   overflow="visible"
   width="230.50899pt"
   height="301.01099pt"
   viewBox="295.5 -592.501 230.509 301.01098"
   id="svg40"
   xmlns="http://www.w3.org/2000/svg"
   xmlns:svg="http://www.w3.org/2000/svg">
  <defs
     id="defs1">
	<style type="text/css">
		@font-face {
		font-family: "Segoe UI";
		font-style: normal;
		font-weight: 400;
		src: local("Segoe UI"), url(https://c.s-microsoft.com/static/fonts/segoe-ui/west-european/normal/latest.woff2) format("woff2");
		}

		@font-face {
		font-family: "Segoe UI";
		font-style: normal;
		font-weight: 700;
		src: local("Segoe UI Bold"), url(https://c.s-microsoft.com/static/fonts/segoe-ui/west-european/bold/latest.woff2) format("woff2");
		}
    </style>	 
    <filter
       style="color-interpolation-filters:sRGB"
       id="filter41"
       x="-0.076015712"
       y="-0.074666385"
       width="1.1775743"
       height="1.1305535">
      <feFlood
         result="flood"
         in="SourceGraphic"
         flood-opacity="0.258824"
         flood-color="rgb(0,0,0)"
         id="feFlood40" />
      <feGaussianBlur
         result="blur"
         in="SourceGraphic"
         stdDeviation="6.200000"
         id="feGaussianBlur40" />
      <feOffset
         result="offset"
         in="blur"
         dx="5.000000"
         dy="-5.000000"
         id="feOffset40" />
      <feComposite
         result="comp1"
         operator="in"
         in="flood"
         in2="offset"
         id="feComposite40" />
      <feComposite
         result="comp2"
         operator="over"
         in="SourceGraphic"
         in2="comp1"
         id="feComposite41" />
    </filter>
  </defs>
  <g
     id="Images"
     transform="matrix(1,0,0,-1,14.879999,14.879995)">
    <g
       id="Group"
       stroke="none">
      <path
         d="M 295.5,584.95 V 333.801 c 0,-4.168 3.383,-7.551 7.551,-7.551 h 180.647 c 4.168,0 7.551,3.383 7.551,7.551 V 584.95 c 0,4.168 -3.383,7.551 -7.551,7.551 H 303.051 c -4.168,0 -7.551,-3.383 -7.551,-7.551 z"
         fill="#4c4c4c"
         stroke-width="0.6"
         stroke-linejoin="miter"
         stroke-linecap="round"
         marker-start="none"
         marker-end="none"
         id="path1"
         style="filter:url(#filter41)" />
      <g
         id="Group_1"
         font-size="18px"
         font-family="'Segoe UI'"
         stroke-linecap="round">
        <path
           d="m 296.249,404.25 v -38.251 h 47.999 v 38.251 z"
           fill="#e6e6e6"
           stroke-width="0.376"
           stroke-linejoin="miter"
           marker-start="none"
           marker-end="none"
           id="path2" />
        <text
           xml:space="preserve"
           transform="matrix(1,0,0,-1,316.065,378.682)"
           kerning="auto"
           fill="#000000"
           stroke-width="0.2"
           stroke-linejoin="round"
           id="text2"><tspan
             x="0"
             y="0"
             id="tspan2">1</tspan></text>
      </g>
      <g
         id="Group_2"
         font-size="18px"
         font-family="'Segoe UI'"
         stroke-linecap="round">
        <path
           d="m 344.999,404.25 v -38.251 h 47.999 v 38.251 z"
           fill="#e6e6e6"
           stroke-width="0.376"
           stroke-linejoin="miter"
           marker-start="none"
           marker-end="none"
           id="path3" />
        <text
           xml:space="preserve"
           transform="matrix(1,0,0,-1,364.151,378.717)"
           kerning="auto"
           fill="#000000"
           stroke-width="0.2"
           stroke-linejoin="round"
           id="text3"><tspan
             x="0"
             y="0"
             id="tspan3">2</tspan></text>
      </g>
      <g
         id="Group_3"
         font-size="18px"
         font-family="'Segoe UI'"
         stroke-linecap="round">
        <path
           d="m 393.749,404.25 v -38.251 h 47.999 v 38.251 z"
           fill="#e6e6e6"
           stroke-width="0.376"
           stroke-linejoin="miter"
           marker-start="none"
           marker-end="none"
           id="path4" />
        <text
           xml:space="preserve"
           transform="matrix(1,0,0,-1,413.02,378.827)"
           kerning="auto"
           fill="#000000"
           stroke-width="0.2"
           stroke-linejoin="round"
           id="text4"><tspan
             x="0"
             y="0"
             id="tspan4">3</tspan></text>
      </g>
      <g
         id="Group_4"
         font-size="18px"
         font-family="'Segoe UI'"
         stroke-linecap="round">
        <path
           d="m 296.249,443.25 v -38.251 h 47.999 v 38.251 z"
           fill="#e6e6e6"
           stroke-width="0.376"
           stroke-linejoin="miter"
           marker-start="none"
           marker-end="none"
           id="path5" />
        <text
           xml:space="preserve"
           transform="matrix(1,0,0,-1,315.643,417.822)"
           kerning="auto"
           fill="#000000"
           stroke-width="0.2"
           stroke-linejoin="round"
           id="text5"><tspan
             x="0"
             y="0"
             id="tspan5">4</tspan></text>
      </g>
      <g
         id="Group_5"
         font-size="18px"
         font-family="'Segoe UI'"
         stroke-linecap="round">
        <path
           d="m 344.999,443.25 v -38.251 h 47.999 v 38.251 z"
           fill="#e6e6e6"
           stroke-width="0.376"
           stroke-linejoin="miter"
           marker-start="none"
           marker-end="none"
           id="path6" />
        <text
           xml:space="preserve"
           transform="matrix(1,0,0,-1,364.019,417.933)"
           kerning="auto"
           fill="#000000"
           stroke-width="0.2"
           stroke-linejoin="round"
           id="text6"><tspan
             x="0"
             y="0"
             id="tspan6">5</tspan></text>
      </g>
      <g
         id="Group_6"
         font-size="18px"
         font-family="'Segoe UI'"
         stroke-linecap="round">
        <path
           d="m 393.749,443.25 v -38.251 h 47.999 v 38.251 z"
           fill="#e6e6e6"
           stroke-width="0.376"
           stroke-linejoin="miter"
           marker-start="none"
           marker-end="none"
           id="path7" />
        <text
           xml:space="preserve"
           transform="matrix(1,0,0,-1,412.769,417.827)"
           kerning="auto"
           fill="#000000"
           stroke-width="0.2"
           stroke-linejoin="round"
           id="text7"><tspan
             x="0"
             y="0"
             id="tspan7">6</tspan></text>
      </g>
      <g
         id="Group_7"
         font-size="18px"
         font-family="'Segoe UI'"
         stroke-linecap="round">
        <path
           d="m 296.249,482.25 v -38.251 h 47.999 v 38.251 z"
           fill="#e6e6e6"
           stroke-width="0.376"
           stroke-linejoin="miter"
           marker-start="none"
           marker-end="none"
           id="path8" />
        <text
           xml:space="preserve"
           transform="matrix(1,0,0,-1,315.379,456.822)"
           kerning="auto"
           fill="#000000"
           stroke-width="0.2"
           stroke-linejoin="round"
           id="text8"><tspan
             x="0"
             y="0"
             id="tspan8">7</tspan></text>
      </g>
      <g
         id="Group_8"
         font-size="18px"
         font-family="'Segoe UI'"
         stroke-linecap="round">
        <path
           d="m 344.999,482.25 v -38.251 h 47.999 v 38.251 z"
           fill="#e6e6e6"
           stroke-width="0.376"
           stroke-linejoin="miter"
           marker-start="none"
           marker-end="none"
           id="path9" />
        <text
           xml:space="preserve"
           transform="matrix(1,0,0,-1,364.121,456.818)"
           kerning="auto"
           fill="#000000"
           stroke-width="0.2"
           stroke-linejoin="round"
           id="text9"><tspan
             x="0"
             y="0"
             id="tspan9">8</tspan></text>
      </g>
      <g
         id="Group_9"
         font-size="18px"
         font-family="'Segoe UI'"
         stroke-linecap="round">
        <path
           d="m 393.749,482.25 v -38.251 h 47.999 v 38.251 z"
           fill="#e6e6e6"
           stroke-width="0.376"
           stroke-linejoin="miter"
           marker-start="none"
           marker-end="none"
           id="path10" />
        <text
           xml:space="preserve"
           transform="matrix(1,0,0,-1,412.923,456.827)"
           kerning="auto"
           fill="#000000"
           stroke-width="0.2"
           stroke-linejoin="round"
           id="text10"><tspan
             x="0"
             y="0"
             id="tspan10">9</tspan></text>
      </g>
      <g
         id="Group_10"
         font-size="18px"
         font-family="'Segoe UI'"
         stroke-linecap="round">
        <path
           d="m 344.999,365.252 v -38.251 h 47.999 v 38.251 z"
           fill="#e6e6e6"
           stroke-width="0.376"
           stroke-linejoin="miter"
           marker-start="none"
           marker-end="none"
           id="path11" />
        <text
           xml:space="preserve"
           transform="matrix(1,0,0,-1,364.138,339.829)"
           kerning="auto"
           fill="#000000"
           stroke-width="0.2"
           stroke-linejoin="round"
           id="text11"><tspan
             x="0"
             y="0"
             id="tspan11">0</tspan></text>
      </g>
      <g
         id="Group_11"
         font-size="18px"
         font-family="'Segoe UI'">
        <path
           d="m 344.999,521.252 v -38.251 h 47.999 v 38.251 z"
           fill="#d9d9d9"
           stroke-width="0.376"
           stroke-linejoin="miter"
           stroke-linecap="round"
           marker-start="none"
           marker-end="none"
           id="path12" />
        <text
           xml:space="preserve"
           transform="matrix(1,0,0,-1,363.47,495.823)"
           kerning="auto"
           fill="#000000"
           id="text12"><tspan
             x="0"
             y="0"
             id="tspan12">ะก</tspan></text>
      </g>
      <text
         xml:space="preserve"
         transform="matrix(1,0,0,-1,311.472,536.996)"
         kerning="auto"
         fill="#ffffff"
         font-family="'Segoe UI'"
         font-size="33px"
         id="text13"><tspan
           x="0"
           y="0"
           id="tspan13">01:00:00:00</tspan></text>
      <g
         id="Group_12"
         font-size="18px"
         font-style="italic"
         font-family="'Segoe UI'">
        <path
           d="m 393.749,521.252 v -38.251 h 47.999 v 38.251 z"
           fill="#d9d9d9"
           stroke-width="0.376"
           stroke-linejoin="miter"
           stroke-linecap="round"
           marker-start="none"
           marker-end="none"
           id="path13" />
        <text
           xml:space="preserve"
           transform="matrix(1,0,0,-1,419.278,496.851)"
           kerning="auto"
           fill="#000000"
           stroke-width="0.3"
           id="text14"><tspan
             x="-5.309"
             y="0"
             id="tspan14">f</tspan></text>
      </g>
      <g
         id="Group_13"
         stroke-linecap="round">
        <path
           d="M 442.499,521.252 V 483.019 H 490.5 v 38.233 z"
           fill="#ff4f4f"
           stroke-width="0.594"
           stroke-linejoin="miter"
           marker-start="none"
           marker-end="none"
           id="path14" />
        <path
           d="m 465.374,507.196 c 0,0.158 0.029,0.305 0.088,0.44 0.059,0.134 0.139,0.253 0.242,0.356 0.102,0.102 0.221,0.183 0.356,0.241 0.134,0.059 0.281,0.088 0.439,0.088 0.152,0 0.297,-0.029 0.435,-0.088 0.138,-0.058 0.258,-0.139 0.361,-0.241 0.102,-0.103 0.183,-0.223 0.241,-0.361 0.059,-0.138 0.088,-0.283 0.088,-0.435 0,-0.158 -0.029,-0.305 -0.088,-0.439 -0.058,-0.135 -0.139,-0.254 -0.241,-0.356 -0.103,-0.103 -0.222,-0.183 -0.356,-0.242 -0.135,-0.059 -0.282,-0.088 -0.44,-0.088 -0.158,0 -0.306,0.029 -0.444,0.088 -0.137,0.059 -0.256,0.138 -0.356,0.237 -0.099,0.1 -0.178,0.219 -0.237,0.356 -0.059,0.138 -0.088,0.286 -0.088,0.444 z m -7.312,-5.625 c -0.153,0 -0.284,0.056 -0.396,0.167 -0.111,0.112 -0.167,0.243 -0.167,0.396 0,0.152 0.056,0.284 0.167,0.395 0.112,0.111 0.243,0.167 0.396,0.167 h 16.875 c 0.152,0 0.284,-0.056 0.395,-0.167 0.111,-0.111 0.167,-0.243 0.167,-0.395 0,-0.153 -0.056,-0.284 -0.167,-0.396 -0.111,-0.111 -0.243,-0.167 -0.395,-0.167 z m 7.312,-4.5 c 0,0.158 0.029,0.305 0.088,0.44 0.059,0.134 0.139,0.253 0.242,0.356 0.102,0.102 0.221,0.183 0.356,0.241 0.134,0.059 0.281,0.088 0.439,0.088 0.152,0 0.297,-0.029 0.435,-0.088 0.138,-0.058 0.258,-0.139 0.361,-0.241 0.102,-0.103 0.183,-0.223 0.241,-0.361 0.059,-0.138 0.088,-0.283 0.088,-0.435 0,-0.158 -0.029,-0.305 -0.088,-0.439 -0.058,-0.135 -0.139,-0.254 -0.241,-0.356 -0.103,-0.103 -0.222,-0.183 -0.356,-0.242 -0.135,-0.059 -0.282,-0.088 -0.44,-0.088 -0.158,0 -0.306,0.029 -0.444,0.088 -0.137,0.059 -0.256,0.138 -0.356,0.237 -0.099,0.1 -0.178,0.219 -0.237,0.356 -0.059,0.138 -0.088,0.286 -0.088,0.444 z"
           fill-rule="nonzero"
           stroke-linejoin="round"
           stroke-width="1.015"
           fill="#ffffff"
           marker-start="none"
           marker-end="none"
           id="path15" />
      </g>
      <g
         id="Group_14"
         stroke-linecap="round">
        <path
           d="M 442.501,482.25 V 444.015 H 490.5 v 38.235 z"
           fill="#ff4f4f"
           stroke-width="0.594"
           stroke-linejoin="miter"
           marker-start="none"
           marker-end="none"
           id="path16" />
        <path
           d="m 467.29,463.133 5.229,-5.23 c 0.111,-0.111 0.167,-0.243 0.167,-0.395 0,-0.153 -0.056,-0.284 -0.167,-0.396 -0.111,-0.111 -0.243,-0.167 -0.395,-0.167 -0.153,0 -0.284,0.056 -0.396,0.167 l -5.229,5.23 -5.23,-5.23 c -0.111,-0.111 -0.243,-0.167 -0.395,-0.167 -0.153,0 -0.284,0.056 -0.396,0.167 -0.111,0.112 -0.167,0.243 -0.167,0.396 0,0.152 0.056,0.284 0.167,0.395 l 5.23,5.23 -5.23,5.229 c -0.111,0.112 -0.167,0.243 -0.167,0.396 0,0.152 0.056,0.284 0.167,0.395 0.112,0.111 0.243,0.167 0.396,0.167 0.152,0 0.284,-0.056 0.395,-0.167 l 5.23,-5.229 5.229,5.229 c 0.112,0.111 0.243,0.167 0.396,0.167 0.152,0 0.284,-0.056 0.395,-0.167 0.111,-0.111 0.167,-0.243 0.167,-0.395 0,-0.153 -0.056,-0.284 -0.167,-0.396 z"
           fill-rule="nonzero"
           stroke-linejoin="round"
           stroke-width="1.015"
           fill="#ffffff"
           marker-start="none"
           marker-end="none"
           id="path17" />
      </g>
      <g
         id="Group_15">
        <path
           d="M 442.501,404.25 V 366.015 H 490.5 v 38.235 z"
           fill="#ff4f4f"
           stroke-width="0.594"
           stroke-linejoin="miter"
           stroke-linecap="round"
           marker-start="none"
           marker-end="none"
           id="path18" />
        <path
           d="m 473.811,385.119 c 0,-0.153 -0.056,-0.284 -0.167,-0.396 -0.111,-0.111 -0.243,-0.167 -0.395,-0.167 h -6.188 v -6.187 c 0,-0.153 -0.056,-0.284 -0.167,-0.396 -0.111,-0.111 -0.243,-0.167 -0.395,-0.167 -0.153,0 -0.284,0.056 -0.396,0.167 -0.111,0.112 -0.167,0.243 -0.167,0.396 v 6.187 h -6.187 c -0.153,0 -0.284,0.056 -0.396,0.167 -0.111,0.112 -0.167,0.243 -0.167,0.396 0,0.152 0.056,0.284 0.167,0.395 0.112,0.111 0.243,0.167 0.396,0.167 h 6.187 v 6.188 c 0,0.152 0.056,0.284 0.167,0.395 0.112,0.111 0.243,0.167 0.396,0.167 0.152,0 0.284,-0.056 0.395,-0.167 0.111,-0.111 0.167,-0.243 0.167,-0.395 v -6.188 h 6.188 c 0.152,0 0.284,-0.056 0.395,-0.167 0.111,-0.111 0.167,-0.243 0.167,-0.395 z"
           fill-rule="nonzero"
           fill="#ffffff"
           marker-start="none"
           marker-end="none"
           id="path19" />
      </g>
      <g
         id="Group_16">
        <path
           d="M 442.501,443.25 V 405.015 H 490.5 v 38.235 z"
           fill="#ff4f4f"
           stroke-width="0.594"
           stroke-linejoin="miter"
           stroke-linecap="round"
           marker-start="none"
           marker-end="none"
           id="path20" />
        <path
           d="m 459.749,423.57 c -0.153,0 -0.284,0.056 -0.396,0.167 -0.111,0.112 -0.167,0.243 -0.167,0.396 0,0.152 0.056,0.284 0.167,0.395 0.112,0.111 0.243,0.167 0.396,0.167 h 13.5 c 0.152,0 0.284,-0.056 0.395,-0.167 0.111,-0.111 0.167,-0.243 0.167,-0.395 0,-0.153 -0.056,-0.284 -0.167,-0.396 -0.111,-0.111 -0.243,-0.167 -0.395,-0.167 z"
           fill-rule="nonzero"
           fill="#ffffff"
           marker-start="none"
           marker-end="none"
           id="path21" />
      </g>
      <g
         id="Group_17">
        <path
           d="m 490.5,333.763 v 24.726 c 0,0.079 0,0.157 -0.004,0.234 h 0.004 v 6.528 h -48 v -6.528 h 0.004 c -0.002,-0.077 -0.004,-0.155 -0.004,-0.234 v -24.726 c 0,-0.079 0.002,-0.157 0.004,-0.234 H 442.5 v -6.528 h 41.173 c 3.768,0 6.827,3.032 6.827,6.762 z"
           fill="#ff4f4f"
           stroke-width="0.75"
           stroke-linejoin="miter"
           stroke-linecap="round"
           marker-start="none"
           marker-end="none"
           id="path22" />
        <path
           d="m 458.063,348.376 c -0.153,0 -0.284,0.056 -0.396,0.167 -0.111,0.112 -0.167,0.243 -0.167,0.396 0,0.152 0.056,0.284 0.167,0.395 0.112,0.111 0.243,0.167 0.396,0.167 h 16.875 c 0.152,0 0.284,-0.056 0.395,-0.167 0.111,-0.111 0.167,-0.243 0.167,-0.395 0,-0.153 -0.056,-0.284 -0.167,-0.396 -0.111,-0.111 -0.243,-0.167 -0.395,-0.167 z m 0,-5.625 c -0.153,0 -0.284,0.056 -0.396,0.167 -0.111,0.112 -0.167,0.243 -0.167,0.396 0,0.152 0.056,0.284 0.167,0.395 0.112,0.111 0.243,0.167 0.396,0.167 h 16.875 c 0.152,0 0.284,-0.056 0.395,-0.167 0.111,-0.111 0.167,-0.243 0.167,-0.395 0,-0.153 -0.056,-0.284 -0.167,-0.396 -0.111,-0.111 -0.243,-0.167 -0.395,-0.167 z"
           fill-rule="nonzero"
           fill="#ffffff"
           marker-start="none"
           marker-end="none"
           id="path23" />
      </g>
      <g
         id="Group_18">
        <path
           d="m 296.249,521.252 v -38.251 h 47.999 v 38.251 z"
           fill="#d9d9d9"
           stroke-width="0.376"
           stroke-linejoin="miter"
           stroke-linecap="round"
           marker-start="none"
           marker-end="none"
           id="path24" />
        <path
           d="m 311.812,507.189 c -0.153,0 -0.284,0.056 -0.396,0.167 -0.111,0.112 -0.167,0.243 -0.167,0.396 0,0.152 0.056,0.284 0.167,0.395 0.112,0.111 0.243,0.167 0.396,0.167 h 16.875 c 0.152,0 0.284,-0.056 0.395,-0.167 0.111,-0.111 0.167,-0.243 0.167,-0.395 0,-0.153 -0.056,-0.284 -0.167,-0.396 -0.111,-0.111 -0.243,-0.167 -0.395,-0.167 z m 0,-5.625 c -0.153,0 -0.284,0.056 -0.396,0.167 -0.111,0.112 -0.167,0.243 -0.167,0.396 0,0.152 0.056,0.284 0.167,0.395 0.112,0.111 0.243,0.167 0.396,0.167 h 16.875 c 0.152,0 0.284,-0.056 0.395,-0.167 0.111,-0.111 0.167,-0.243 0.167,-0.395 0,-0.153 -0.056,-0.284 -0.167,-0.396 -0.111,-0.111 -0.243,-0.167 -0.395,-0.167 z m 0,-5.625 c -0.153,0 -0.284,0.056 -0.396,0.167 -0.111,0.112 -0.167,0.243 -0.167,0.396 0,0.152 0.056,0.284 0.167,0.395 0.112,0.111 0.243,0.167 0.396,0.167 h 16.875 c 0.152,0 0.284,-0.056 0.395,-0.167 0.111,-0.111 0.167,-0.243 0.167,-0.395 0,-0.153 -0.056,-0.284 -0.167,-0.396 -0.111,-0.111 -0.243,-0.167 -0.395,-0.167 z"
           fill-rule="nonzero"
           fill="#000000"
           marker-start="none"
           marker-end="none"
           id="path25" />
      </g>
      <g
         id="Group_19">
        <path
           d="m 393.749,365.252 v -38.251 h 47.999 v 38.251 z"
           fill="#d9d9d9"
           stroke-width="0.376"
           stroke-linejoin="miter"
           stroke-linecap="round"
           marker-start="none"
           marker-end="none"
           id="path26" />
        <path
           d="m 418.25,341.627 c -0.369,0 -0.721,0.075 -1.055,0.224 -0.333,0.15 -0.625,0.349 -0.874,0.598 -0.249,0.249 -0.448,0.541 -0.598,0.874 -0.149,0.334 -0.224,0.686 -0.224,1.055 v 6.873 c 0,0.369 0.075,0.721 0.224,1.055 0.15,0.334 0.349,0.625 0.598,0.874 0.249,0.249 0.541,0.449 0.874,0.598 0.334,0.149 0.686,0.224 1.055,0.224 h 4.623 c 0.369,0 0.721,-0.075 1.055,-0.224 0.334,-0.149 0.625,-0.349 0.874,-0.598 0.249,-0.249 0.449,-0.54 0.598,-0.874 0.149,-0.334 0.224,-0.686 0.224,-1.055 v -6.873 c 0,-0.369 -0.075,-0.721 -0.224,-1.055 -0.149,-0.333 -0.349,-0.625 -0.598,-0.874 -0.249,-0.249 -0.54,-0.448 -0.874,-0.598 -0.334,-0.149 -0.686,-0.224 -1.055,-0.224 z m 4.562,1.125 c 0.228,0 0.445,0.044 0.65,0.132 0.205,0.088 0.385,0.209 0.541,0.365 0.155,0.155 0.276,0.335 0.364,0.54 0.088,0.205 0.132,0.422 0.132,0.651 v 6.75 c 0,0.228 -0.044,0.445 -0.132,0.65 -0.088,0.205 -0.209,0.385 -0.364,0.541 -0.156,0.155 -0.336,0.276 -0.541,0.364 -0.205,0.088 -0.422,0.132 -0.65,0.132 h -4.5 c -0.229,0 -0.446,-0.044 -0.651,-0.132 -0.205,-0.088 -0.385,-0.209 -0.54,-0.364 -0.156,-0.156 -0.277,-0.336 -0.365,-0.541 -0.088,-0.205 -0.132,-0.422 -0.132,-0.65 v -6.75 c 0,-0.229 0.044,-0.446 0.132,-0.651 0.088,-0.205 0.209,-0.385 0.365,-0.54 0.155,-0.156 0.335,-0.277 0.54,-0.365 0.205,-0.088 0.422,-0.132 0.651,-0.132 z m -10.187,-4.5 c -0.369,0 -0.721,0.075 -1.055,0.224 -0.333,0.15 -0.625,0.349 -0.874,0.598 -0.249,0.249 -0.448,0.541 -0.598,0.874 -0.149,0.334 -0.224,0.686 -0.224,1.055 v 6.873 c 0,0.369 0.075,0.721 0.224,1.055 0.15,0.334 0.349,0.625 0.598,0.874 0.249,0.249 0.541,0.449 0.874,0.598 0.334,0.149 0.686,0.224 1.055,0.224 h 1.749 v -1.125 h -1.687 c -0.229,0 -0.446,-0.044 -0.651,-0.132 -0.205,-0.088 -0.385,-0.209 -0.54,-0.364 -0.156,-0.156 -0.277,-0.336 -0.365,-0.541 -0.088,-0.205 -0.132,-0.422 -0.132,-0.65 v -6.75 c 0,-0.229 0.044,-0.446 0.132,-0.651 0.088,-0.205 0.209,-0.385 0.365,-0.54 0.155,-0.156 0.335,-0.277 0.54,-0.365 0.205,-0.088 0.422,-0.132 0.651,-0.132 h 4.5 c 0.181,0 0.354,0.026 0.518,0.079 0.164,0.053 0.317,0.129 0.457,0.229 0.141,0.099 0.264,0.218 0.369,0.356 0.106,0.137 0.188,0.291 0.246,0.461 h 1.169 c -0.064,-0.322 -0.183,-0.621 -0.356,-0.896 -0.172,-0.276 -0.382,-0.513 -0.628,-0.712 -0.246,-0.2 -0.521,-0.356 -0.826,-0.47 -0.305,-0.115 -0.621,-0.172 -0.949,-0.172 z"
           fill-rule="nonzero"
           fill="#000000"
           marker-start="none"
           marker-end="none"
           id="path27" />
      </g>
      <g
         id="Group_20">
        <path
           d="m 296.249,333.763 v 24.726 c 0,0.079 0,0.155 0.002,0.234 h -0.002 v 6.528 h 48 v -6.528 h -0.004 c 0.002,-0.079 0.004,-0.155 0.004,-0.234 v -24.726 c 0,-0.079 -0.002,-0.157 -0.004,-0.234 h 0.004 v -6.528 h -41.171 c -3.77,0 -6.829,3.03 -6.829,6.762 z"
           fill="#d9d9d9"
           stroke-width="0.75"
           stroke-linejoin="miter"
           stroke-linecap="round"
           marker-start="none"
           marker-end="none"
           id="path28" />
        <path
           d="m 314.069,337.134 c -0.229,0 -0.446,0.044 -0.651,0.132 -0.205,0.088 -0.385,0.209 -0.54,0.365 -0.156,0.155 -0.277,0.335 -0.365,0.54 -0.088,0.205 -0.132,0.422 -0.132,0.651 v 13.5 c 0,0.228 0.044,0.445 0.132,0.65 0.088,0.205 0.209,0.385 0.365,0.541 0.155,0.155 0.335,0.276 0.54,0.364 0.205,0.088 0.422,0.132 0.651,0.132 h 1.784 c 0.058,0.17 0.14,0.324 0.246,0.462 0.105,0.137 0.228,0.256 0.369,0.356 0.141,0.099 0.293,0.175 0.457,0.228 0.164,0.053 0.337,0.079 0.519,0.079 h 3.375 c 0.181,0 0.354,-0.026 0.518,-0.079 0.164,-0.053 0.317,-0.129 0.457,-0.228 0.141,-0.1 0.264,-0.219 0.369,-0.356 0.106,-0.138 0.188,-0.292 0.246,-0.462 h 1.785 c 0.228,0 0.445,-0.044 0.65,-0.132 0.205,-0.088 0.385,-0.209 0.541,-0.364 0.155,-0.156 0.276,-0.336 0.364,-0.541 0.088,-0.205 0.132,-0.422 0.132,-0.65 v -1.125 c 0,-0.153 -0.056,-0.284 -0.167,-0.396 -0.111,-0.111 -0.243,-0.167 -0.395,-0.167 -0.123,0 -0.223,0.024 -0.299,0.07 -0.076,0.047 -0.134,0.11 -0.172,0.189 -0.038,0.08 -0.064,0.17 -0.079,0.273 -0.014,0.102 -0.022,0.206 -0.022,0.312 0,0.099 0.003,0.198 0.009,0.294 0.006,0.097 0.009,0.186 0.009,0.268 0,0.106 -0.006,0.208 -0.018,0.308 -0.011,0.1 -0.036,0.189 -0.074,0.268 -0.038,0.079 -0.096,0.144 -0.172,0.193 -0.076,0.05 -0.178,0.075 -0.307,0.075 h -1.785 c -0.058,-0.17 -0.14,-0.324 -0.246,-0.461 -0.105,-0.138 -0.228,-0.257 -0.369,-0.356 -0.14,-0.1 -0.293,-0.176 -0.457,-0.229 -0.164,-0.053 -0.337,-0.079 -0.518,-0.079 h -3.375 c -0.182,0 -0.355,0.026 -0.519,0.079 -0.164,0.053 -0.316,0.129 -0.457,0.229 -0.141,0.099 -0.264,0.218 -0.369,0.356 -0.106,0.137 -0.188,0.291 -0.246,0.461 h -1.784 c -0.153,0 -0.284,-0.056 -0.396,-0.167 -0.111,-0.111 -0.167,-0.243 -0.167,-0.395 v -13.5 c 0,-0.153 0.056,-0.284 0.167,-0.396 0.112,-0.111 0.243,-0.167 0.396,-0.167 h 3.375 c 0.152,0 0.284,-0.056 0.395,-0.167 0.111,-0.111 0.167,-0.243 0.167,-0.395 0,-0.153 -0.056,-0.284 -0.167,-0.396 -0.111,-0.111 -0.243,-0.167 -0.395,-0.167 z m 6.75,15.75 c 0.152,0 0.284,0.056 0.395,0.167 0.111,0.112 0.167,0.243 0.167,0.396 0,0.152 -0.056,0.284 -0.167,0.395 -0.111,0.111 -0.243,0.167 -0.395,0.167 h -3.375 c -0.153,0 -0.284,-0.056 -0.396,-0.167 -0.111,-0.111 -0.167,-0.243 -0.167,-0.395 0,-0.153 0.056,-0.284 0.167,-0.396 0.112,-0.111 0.243,-0.167 0.396,-0.167 z m 0,-15.75 c -0.229,0 -0.446,0.044 -0.651,0.132 -0.205,0.088 -0.385,0.209 -0.54,0.365 -0.156,0.155 -0.277,0.335 -0.365,0.54 -0.088,0.205 -0.132,0.422 -0.132,0.651 v 9 c 0,0.228 0.044,0.445 0.132,0.65 0.088,0.205 0.209,0.385 0.365,0.541 0.155,0.155 0.335,0.276 0.54,0.364 0.205,0.088 0.422,0.132 0.651,0.132 h 5.625 c 0.228,0 0.445,-0.044 0.65,-0.132 0.205,-0.088 0.385,-0.209 0.541,-0.364 0.155,-0.156 0.276,-0.336 0.364,-0.541 0.088,-0.205 0.132,-0.422 0.132,-0.65 v -9 c 0,-0.229 -0.044,-0.446 -0.132,-0.651 -0.088,-0.205 -0.209,-0.385 -0.364,-0.54 -0.156,-0.156 -0.336,-0.277 -0.541,-0.365 -0.205,-0.088 -0.422,-0.132 -0.65,-0.132 z m 5.625,1.125 c 0.152,0 0.284,0.056 0.395,0.167 0.111,0.112 0.167,0.243 0.167,0.396 v 9 c 0,0.152 -0.056,0.284 -0.167,0.395 -0.111,0.111 -0.243,0.167 -0.395,0.167 h -5.625 c -0.153,0 -0.284,-0.056 -0.396,-0.167 -0.111,-0.111 -0.167,-0.243 -0.167,-0.395 v -9 c 0,-0.153 0.056,-0.284 0.167,-0.396 0.112,-0.111 0.243,-0.167 0.396,-0.167 z"
           fill-rule="nonzero"
           fill="#000000"
           marker-start="none"
           marker-end="none"
           id="path29" />
      </g>
      <g
         id="Group_21">
        <text
           xml:space="preserve"
           transform="matrix(1,0,0,-1,315.003,579.808)"
           kerning="auto"
           fill="#ffffff"
           stroke-width="0.3"
           font-family="'Segoe UI'"
           font-size="9px"
           id="text31"><tspan
             x="0"
             y="0"
             id="tspan29">tcCalculator</tspan><tspan
             x="47"
             y="0"
             font-weight="bold"
             id="tspan30"> </tspan><tspan
             x="49.483002"
             y="0"
             id="tspan31">24</tspan></text>
        <g
           id="Group_22"
           fill-rule="nonzero">
          <path
             d="m 477.531,586.462 -3.096,-3.096 3.096,-3.097 -0.369,-0.369 -3.096,3.096 -3.097,-3.096 -0.369,0.369 3.096,3.097 -3.096,3.096 0.369,0.369 3.097,-3.096 3.096,3.096 z"
             stroke-width="0.3"
             fill="#ffffff"
             marker-start="none"
             marker-end="none"
             id="path31" />
          <path
             d="m 443.197,587.109 v -7.5 h -7.5 v 7.5 z m -0.75,-0.75 h -5.999 v -5.999 h 5.999 z"
             fill="#707070"
             marker-start="none"
             marker-end="none"
             id="path32" />
          <path
             d="m 401.784,583.084 h 7.875 v -0.525 h -7.875 z"
             stroke-width="0.3"
             fill="#ffffff"
             marker-start="none"
             marker-end="none"
             id="path33" />
        </g>
        <g
           id="Group_23"
           font-size="6px"
           font-weight="bold"
           font-family="Roboto"
           stroke-linecap="round">
          <path
             d="m 298.501,588.363 v -9.709 c 0,-0.632 0.513,-1.145 1.145,-1.145 h 9.709 c 0.632,0 1.146,0.513 1.146,1.145 v 9.709 c 0,0.632 -0.514,1.146 -1.146,1.146 h -9.709 c -0.632,0 -1.145,-0.514 -1.145,-1.146 z"
             fill="#ffffff"
             stroke-width="0.188"
             stroke-linejoin="miter"
             marker-start="none"
             marker-end="none"
             id="path34" />
          <path
             d="m 298.87,588.104 v -9.187 c 0,-0.569 0.463,-1.032 1.032,-1.032 h 9.179 c 0.569,0 1.032,0.463 1.032,1.032 v 9.187 c 0,0.569 -0.463,1.032 -1.032,1.032 h -9.179 c -0.569,0 -1.032,-0.463 -1.032,-1.032 z"
             fill="#4c4c4c"
             stroke-width="0.094"
             stroke-linejoin="miter"
             marker-start="none"
             marker-end="none"
             id="path35" />
          <g
             id="Group_24"
             fill-rule="nonzero"
             stroke-linejoin="round"
             stroke-width="0.147"
             fill="#ffffff">
            <g
               id="Group_25">
              <path
                 d="m 304.223,584.909 c 0,-0.59 -0.122,-1.041 -0.366,-1.354 -0.244,-0.312 -0.602,-0.469 -1.072,-0.469 -0.465,0 -0.821,0.154 -1.067,0.46 -0.246,0.307 -0.372,0.746 -0.378,1.319 v 0.785 c 0,0.595 0.124,1.048 0.371,1.356 0.247,0.309 0.603,0.463 1.068,0.463 0.465,0 0.82,-0.153 1.066,-0.458 0.246,-0.306 0.372,-0.745 0.378,-1.317 z m -0.847,0.861 c 0,0.353 -0.048,0.611 -0.145,0.772 -0.096,0.161 -0.247,0.241 -0.452,0.241 -0.2,0 -0.346,-0.076 -0.441,-0.23 -0.095,-0.153 -0.145,-0.393 -0.151,-0.719 v -1.037 c 0,-0.347 0.047,-0.606 0.142,-0.775 0.095,-0.169 0.247,-0.253 0.456,-0.253 0.207,0 0.356,0.081 0.448,0.243 0.092,0.162 0.139,0.41 0.143,0.744 z"
                 marker-start="none"
                 marker-end="none"
                 id="path36" />
              <path
                 d="m 307.665,584.909 c 0,-0.59 -0.122,-1.041 -0.366,-1.354 -0.244,-0.312 -0.602,-0.469 -1.072,-0.469 -0.465,0 -0.821,0.154 -1.067,0.46 -0.246,0.307 -0.372,0.746 -0.378,1.319 v 0.785 c 0,0.595 0.124,1.048 0.371,1.356 0.247,0.309 0.603,0.463 1.068,0.463 0.465,0 0.82,-0.153 1.066,-0.458 0.246,-0.306 0.372,-0.745 0.378,-1.317 z m -0.847,0.861 c 0,0.353 -0.048,0.611 -0.145,0.772 -0.096,0.161 -0.247,0.241 -0.452,0.241 -0.2,0 -0.346,-0.076 -0.441,-0.23 -0.095,-0.153 -0.145,-0.393 -0.151,-0.719 v -1.037 c 0,-0.347 0.047,-0.606 0.142,-0.775 0.095,-0.169 0.247,-0.253 0.456,-0.253 0.207,0 0.356,0.081 0.448,0.243 0.092,0.162 0.139,0.41 0.143,0.744 z"
                 marker-start="none"
                 marker-end="none"
                 id="path37" />
            </g>
          </g>
          <path
             d="m 303.153,581.419 v -2.765 h 2.699 v 2.765 z"
             fill="#e5e5e5"
             stroke-width="0.75"
             stroke-linejoin="miter"
             marker-start="none"
             marker-end="none"
             id="path38" />
          <path
             d="m 299.634,579.044 v 2.373 h 2.751 v -2.763 h -2.361 c -0.215,0 -0.39,0.175 -0.39,0.39 z"
             fill="#e5e5e5"
             stroke-linejoin="miter"
             stroke-width="0.094"
             marker-start="none"
             marker-end="none"
             id="path39" />
          <path
             d="m 309.362,579.044 v 2.373 h -2.751 v -2.763 h 2.361 c 0.215,0 0.39,0.175 0.39,0.39 z"
             fill="#ff4f4f"
             stroke-linejoin="miter"
             stroke-width="0.094"
             marker-start="none"
             marker-end="none"
             id="path40" />
        </g>
      </g>
    </g>
  </g>
</svg>
